# File created by Blade
# Date/Time:  Thu Mar 15 16:00:31 2018
#---------------------------------------------------------
:version 1.10
:name HOM
:units
  mass 1.0
  length 1.000000
  angle deg
:documentation
     Acclaim Skeleton File
:root
   axis xyz
   order TX TY TZ RX RZ RY
   position 0.000000 0.000000 0.000000
   orientation 0 0 0
:bonedata
   begin
      id 1
      name Spine_dum
      direction 0.000000 0.554700 0.832050
      length 3.185137
      axis 0.0 0.0 0.0 xyz
   end
   begin
      id 2
      name RightUpLeg_dum
      direction -0.959879 0.000000 -0.280414
      length 3.741437
      axis 0.0 0.0 0.0 xyz
   end
   begin
      id 3
      name LeftUpLeg_dum
      direction 0.959879 0.000000 -0.280414
      length 3.741437
      axis 0.0 0.0 0.0 xyz
   end
   begin
      id 4
      name Spine
      direction 0.000000 0.173648 0.984808
      length 3.533592
      axis -10.0 0.0 0.0 xyz
      dof rx rz ry
   end
   begin
      id 5
      name Spine1
      direction 0.000000 0.087156 0.996195
      length 3.533592
      axis -5.0 0.0 0.0 xyz
      dof rx rz ry
   end
   begin
      id 6
      name Spine2
      direction 0.000000 0.000000 1.000000
      length 3.533592
      axis 0.0 0.0 0.0 xyz
      dof rx rz ry
   end
   begin
      id 7
      name Spine3
      direction 0.000000 -0.141421 0.989949
      length 0.000000
      axis 0.0 0.0 0.0 xyz
      dof rx rz ry
   end
   begin
      id 8
      name Spine3_dum1
      direction 0.000000 -0.141421 0.989949
      length 9.369850
      axis 0.0 0.0 0.0 xyz
   end
   begin
      id 9
      name Spine3_dum2
      direction -0.174242 -0.290403 0.940907
      length 6.947577
      axis 0.0 0.0 0.0 xyz
   end
   begin
      id 10
      name Spine3_dum3
      direction 0.174242 -0.290403 0.940907
      length 6.947577
      axis 0.0 0.0 0.0 xyz
   end
   begin
      id 11
      name Neck
      direction 0.000000 -0.173648 0.984808
      length 4.858689
      axis 10.0 0.0 0.0 xyz
      dof rx rz ry
   end
   begin
      id 12
      name Head
      direction 0.000000 0.000000 1.000000
      length 5.720002
      axis 0.0 0.0 0.0 xyz
      dof rx rz ry
   end
   begin
      id 13
      name RightShoulder
      direction -1.000000 0.000000 0.000000
      length 6.012446
      axis -180.0 0.0 -180.0 xyz
      dof rz rx ry
   end
   begin
      id 14
      name RightArm
      direction -1.000000 0.000000 0.000000
      length 11.728112
      axis -180.0 0.0 -180.0 xyz
      dof ry rz rx
   end
   begin
      id 15
      name RightForeArm
      direction -1.000000 0.000000 0.000000
      length 4.841601
      axis -180.0 0.0 -180.0 xyz
      dof rx ry rz
   end
   begin
      id 16
      name RightForeArmRoll
      direction -1.000000 0.000000 0.000000
      length 5.003964
      axis -180.0 0.0 -180.0 xyz
      dof rx ry rz
   end
   begin
      id 17
      name RightHand
      direction -1.000000 0.000000 0.000000
      length 0.000000
      axis -180.0 0.0 -180.0 xyz
      dof rx ry rz
   end
   begin
      id 18
      name RightHand_dum1
      direction -1.000000 0.000000 0.000000
      length 2.836875
      axis -180.0 0.0 -180.0 xyz
   end
   begin
      id 19
      name RightHand_dum2
      direction -0.486664 -0.811107 -0.324443
      length 2.331690
      axis -180.0 0.0 -180.0 xyz
   end
   begin
      id 20
      name RightHandEnd
      direction -1.000000 0.000000 0.000000
      length 2.836875
      axis 90.0 0.0 -180.0 xyz
      dof rx ry rz
   end
   begin
      id 21
      name RightHandThumb1
      direction -0.965926 -0.258819 0.000000
      length 2.836875
      axis -10.0 0.0 -165.0 xyz
      dof rx ry rz
   end
   begin
      id 22
      name LeftShoulder
      direction 1.000000 0.000000 0.000000
      length 6.012446
      axis 0.0 0.0 0.0 xyz
      dof rz rx ry
   end
   begin
      id 23
      name LeftArm
      direction 1.000000 0.000000 0.000000
      length 11.728112
      axis 0.0 0.0 0.0 xyz
      dof ry rz rx
   end
   begin
      id 24
      name LeftForeArm
      direction 1.000000 0.000000 0.000000
      length 4.841601
      axis 0.0 0.0 0.0 xyz
      dof rx ry rz
   end
   begin
      id 25
      name LeftForeArmRoll
      direction 1.000000 0.000000 0.000000
      length 5.003964
      axis 0.0 0.0 0.0 xyz
      dof rx ry rz
   end
   begin
      id 26
      name LeftHand
      direction 1.000000 0.000000 0.000000
      length 0.000000
      axis 0.0 0.0 0.0 xyz
      dof rx ry rz
   end
   begin
      id 27
      name LeftHand_dum1
      direction 1.000000 0.000000 0.000000
      length 2.836875
      axis 0.0 0.0 0.0 xyz
   end
   begin
      id 28
      name LeftHand_dum2
      direction 0.486664 -0.811107 -0.324443
      length 2.331690
      axis 0.0 0.0 0.0 xyz
   end
   begin
      id 29
      name LeftHandEnd
      direction 1.000000 0.000000 0.000000
      length 2.836875
      axis 90.0 0.0 0.0 xyz
      dof rx ry rz
   end
   begin
      id 30
      name LeftHandThumb1
      direction 0.965926 -0.258819 0.000000
      length 2.836875
      axis 170.0 0.0 -15.0 xyz
      dof rx ry rz
   end
   begin
      id 31
      name RightUpLeg
      direction 0.000000 0.000000 -1.000000
      length 15.861483
      axis 0.0 90.0 0.0 xyz
      dof ry rz rx
   end
   begin
      id 32
      name RightLeg
      direction 0.000000 0.000000 -1.000000
      length 17.164458
      axis 0.0 90.0 0.0 xyz
      dof rx ry rz
   end
   begin
      id 33
      name RightFoot
      direction 0.000000 -0.939693 -0.342020
      length 7.211980
      axis -90.0 20.0 -90.0 xyz
      dof rx rz ry
   end
   begin
      id 34
      name RightToeBase
      direction 0.000000 -1.000000 0.000000
      length 2.905343
      axis -90.0 0.0 -90.0 xyz
      dof ry rz rx
   end
   begin
      id 35
      name LeftUpLeg
      direction 0.000000 0.000000 -1.000000
      length 15.861483
      axis 0.0 90.0 0.0 xyz
      dof ry rz rx
   end
   begin
      id 36
      name LeftLeg
      direction 0.000000 0.000000 -1.000000
      length 17.164458
      axis 0.0 90.0 0.0 xyz
      dof rx ry rz
   end
   begin
      id 37
      name LeftFoot
      direction 0.000000 -0.939693 -0.342020
      length 7.211980
      axis -90.0 20.0 -90.0 xyz
      dof rx rz ry
   end
   begin
      id 38
      name LeftToeBase
      direction 0.000000 -1.000000 0.000000
      length 2.905343
      axis -90.0 0.0 -90.0 xyz
      dof ry rz rx
   end
:hierarchy
   begin
      root Spine_dum RightUpLeg_dum LeftUpLeg_dum
      Spine_dum Spine
      RightUpLeg_dum RightUpLeg
      LeftUpLeg_dum LeftUpLeg
      Spine Spine1
      Spine1 Spine2
      Spine2 Spine3
      Spine3 Spine3_dum1 Spine3_dum2 Spine3_dum3
      Spine3_dum1 Neck
      Spine3_dum2 RightShoulder
      Spine3_dum3 LeftShoulder
      Neck Head
      RightShoulder RightArm
      RightArm RightForeArm
      RightForeArm RightForeArmRoll
      RightForeArmRoll RightHand
      RightHand RightHand_dum1 RightHand_dum2
      RightHand_dum1 RightHandEnd
      RightHand_dum2 RightHandThumb1
      LeftShoulder LeftArm
      LeftArm LeftForeArm
      LeftForeArm LeftForeArmRoll
      LeftForeArmRoll LeftHand
      LeftHand LeftHand_dum1 LeftHand_dum2
      LeftHand_dum1 LeftHandEnd
      LeftHand_dum2 LeftHandThumb1
      RightUpLeg RightLeg
      RightLeg RightFoot
      RightFoot RightToeBase
      LeftUpLeg LeftLeg
      LeftLeg LeftFoot
      LeftFoot LeftToeBase
   end

# File created by Blade
# Date/Time:  Thu Mar 15 15:59:21 2018
# Frame Rate: 120.000 fps
#------------------------------------------------------
:FULLY-SPECIFIED
:DEGREES
77
root -0.241483 38.222653 -0.810118 -88.881302 0.165853 0.143376
Spine -0.197587 0.074477 0.361680
Spine1 -0.552380 0.002054 0.018423
Spine2 1.379435 0.367909 0.470991
Spine3 0.104489 -0.057132 -0.417605
Neck -1.123179 -0.168426 -0.151001
Head -0.890777 -1.008783 -0.150845
RightShoulder 0.968152 -4.285003 -6.138663
RightArm -68.331184 -18.874647 -8.987037
RightForeArm 0.000000 -0.000000 -31.302511
RightForeArmRoll 4.343539 -0.000000 -0.000000
RightHand 0.000000 8.041147 -2.985664
RightHandEnd 0.000000 -0.000000 0.000000
RightHandThumb1 0.000000 -0.000000 0.000000
LeftShoulder 2.923620 5.038005 6.218773
LeftArm 67.880737 -37.599072 1.604525
LeftForeArm 0.000000 -0.000000 -19.282272
LeftForeArmRoll -5.512869 -0.000000 0.000000
LeftHand 0.000000 -20.705667 0.576208
LeftHandEnd 0.000000 -0.000000 0.000000
LeftHandThumb1 0.000000 -0.000000 0.000000
RightUpLeg 4.038521 -1.489182 9.327012
RightLeg -0.000000 -0.000000 14.546801
RightFoot 4.013801 -14.898013 -1.740985
RightToeBase -0.000000 0.656143 -0.000000
LeftUpLeg -5.153437 0.216093 0.735804
LeftLeg -0.000000 -0.000000 11.307249
LeftFoot -7.993296 -12.670148 -0.200916
LeftToeBase -0.000000 0.902403 -0.000000
78
root -0.241840 38.223827 -0.812507 -88.865669 0.165956 0.145785
Spine -0.204773 0.073751 0.362034
Spine1 -0.564477 0.001145 0.017204
Spine2 1.387690 0.358195 0.470626
Spine3 0.108479 -0.060203 -0.417029
Neck -1.124146 -0.164152 -0.156988
Head -0.879836 -0.994271 -0.146165
RightShoulder 0.955535 -4.301225 -6.146533
RightArm -68.320885 -18.870790 -8.973235
RightForeArm 0.000000 -0.000000 -31.298645
RightForeArmRoll 4.849016 -0.000000 -0.000000
RightHand -0.000000 7.813073 -3.330636
RightHandEnd 0.000000 -0.000000 0.000000
RightHandThumb1 0.000000 -0.000000 0.000000
LeftShoulder 2.929009 5.044394 6.217046
LeftArm 67.910667 -37.504261 1.560689
LeftForeArm 0.000000 -0.000000 -19.289026
LeftForeArmRoll -4.528983 -0.000000 0.000000
LeftHand 0.000000 -20.184614 1.269881
LeftHandEnd 0.000000 -0.000000 0.000000
LeftHandThumb1 0.000000 -0.000000 0.000000
RightUpLeg 4.034495 -1.513770 9.351889
RightLeg -0.000000 -0.000000 14.549858
RightFoot 4.001998 -14.889764 -1.759393
RightToeBase -0.000000 0.640949 -0.000000
LeftUpLeg -5.151577 0.196484 0.751366
LeftLeg -0.000000 -0.000000 11.305037
LeftFoot -8.002942 -12.651211 -0.218111
LeftToeBase -0.000000 0.863615 -0.000000
79
root -0.242976 38.224140 -0.819174 -88.839798 0.172843 0.137011
Spine -0.212233 0.073476 0.364909
Spine1 -0.573329 0.000590 0.015133
Spine2 1.390743 0.359240 0.467519
Spine3 0.111339 -0.062222 -0.415742
Neck -1.130359 -0.154043 -0.130609
Head -0.874216 -0.999809 -0.168428
RightShoulder 0.952847 -4.302501 -6.148342
RightArm -68.315063 -18.878859 -8.957211
RightForeArm 0.000000 -0.000000 -31.277731
RightForeArmRoll 4.900729 -0.000000 -0.000000
RightHand -0.000000 7.777279 -3.389118
RightHandEnd 0.000000 -0.000000 0.000000
RightHandThumb1 0.000000 -0.000000 0.000000
LeftShoulder 2.951838 5.061920 6.299379
LeftArm 67.692619 -37.964642 1.796608
LeftForeArm 0.000000 -0.000000 -19.183983
LeftForeArmRoll -4.512663 -0.000000 0.000000
LeftHand 0.000000 -21.008415 1.138386
LeftHandEnd 0.000000 -0.000000 0.000000
LeftHandThumb1 0.000000 -0.000000 0.000000
RightUpLeg 4.037280 -1.559831 9.343479
RightLeg -0.000000 -0.000000 14.561926
RightFoot 3.991414 -14.875402 -1.769098
RightToeBase -0.000000 0.650074 -0.000000
LeftUpLeg -5.141864 0.151927 0.738763
LeftLeg -0.000000 -0.000000 11.317731
LeftFoot -7.994494 -12.647095 -0.221920
LeftToeBase -0.000000 0.864941 -0.000000
80
root -0.243643 38.223362 -0.823944 -88.815247 0.184684 0.133824
Spine -0.197884 0.075727 0.366658
Spine1 -0.538424 0.003615 0.013860
Spine2 1.306937 0.425900 0.490022
Spine3 0.095645 -0.054420 -0.424917
Neck -1.120230 -0.136338 -0.164718
Head -0.825067 -1.079275 -0.171101
RightShoulder 1.105747 -4.430245 -6.197018
RightArm -68.239014 -18.985415 -8.868468
RightForeArm 0.000000 -0.000000 -31.255997
RightForeArmRoll 4.343004 -0.000000 -0.000000
RightHand 0.000000 7.993565 -3.002720
RightHandEnd 0.000000 -0.000000 0.000000
RightHandThumb1 0.000000 -0.000000 0.000000
LeftShoulder 2.859925 5.085901 6.218081
LeftArm 67.888702 -37.619324 1.601445
LeftForeArm 0.000000 -0.000000 -19.227385
LeftForeArmRoll -4.343025 -0.000000 0.000000
LeftHand 0.000000 -20.417477 1.320690
LeftHandEnd 0.000000 -0.000000 0.000000
LeftHandThumb1 0.000000 -0.000000 0.000000
RightUpLeg 4.049475 -1.603984 9.370166
RightLeg -0.000000 -0.000000 14.572895
RightFoot 3.972200 -14.868912 -1.794649
RightToeBase -0.000000 0.620197 -0.000000
LeftUpLeg -5.126761 0.118679 0.732824
LeftLeg -0.000000 -0.000000 11.317379
LeftFoot -7.994055 -12.643630 -0.225508
LeftToeBase -0.000000 0.857933 -0.000000
